<svg width="548" height="89" viewBox="0 0 548 89" fill="none" xmlns="http://www.w3.org/2000/svg">
<path d="M50.7379 0.799999H62.6879V28.3H85.1879V38H50.7379V0.799999ZM125.391 38L122.491 31.55H102.841L99.9906 38H88.0406L104.941 0.799999H120.691L138.141 38H125.391ZM118.841 23.35L112.591 9.45L106.491 23.35H118.841ZM178.226 38.6C172.56 38.6 167.943 37.55 164.376 35.45C161.276 33.6167 159.026 31.1833 157.626 28.15C156.426 25.6167 155.826 22.9167 155.826 20.05V18.55C155.826 15.6833 156.426 12.9833 157.626 10.45C159.093 7.35 161.326 4.95 164.326 3.25C167.926 1.21666 172.56 0.199998 178.226 0.199998H180.526C188.526 0.199998 194.393 1.86666 198.126 5.2C199.66 6.56667 200.76 8.11667 201.426 9.85C202.126 11.5833 202.476 13.3833 202.476 15.25V15.5H190.176C190.076 15.0667 189.943 14.6167 189.776 14.15C189.543 13.45 189.026 12.7667 188.226 12.1C187.46 11.4333 186.41 10.85 185.076 10.35C183.71 9.81667 181.81 9.55 179.376 9.55C175.343 9.55 172.393 10.5667 170.526 12.6C169.026 14.2333 168.276 16.3333 168.276 18.9V19.55C168.276 20.65 168.46 21.75 168.826 22.85C169.193 23.95 169.776 24.95 170.576 25.85C172.543 28.05 175.493 29.15 179.426 29.15C183.526 29.15 186.493 28.2667 188.326 26.5C189.026 25.8667 189.51 25.1833 189.776 24.45C189.943 23.9833 190.076 23.5333 190.176 23.1H202.476V23.4C202.476 25.8 201.893 28.05 200.726 30.15C199.36 32.6167 197.143 34.5833 194.076 36.05C190.51 37.75 185.993 38.6 180.526 38.6H178.226ZM233.277 0.199998C239.077 0.199998 243.844 1.2 247.577 3.2C250.677 4.9 253.01 7.25 254.577 10.25C255.81 12.7167 256.427 15.4833 256.427 18.55V20.05C256.427 22.2167 256.06 24.3667 255.327 26.5C254.627 28.6333 253.477 30.55 251.877 32.25C247.877 36.4833 241.677 38.6 233.277 38.6H231.027C225.227 38.6 220.477 37.5667 216.777 35.5C213.577 33.7333 211.244 31.3333 209.777 28.3C208.51 25.8 207.877 23.05 207.877 20.05V18.55C207.877 15.45 208.51 12.6833 209.777 10.25C211.277 7.25 213.61 4.9 216.777 3.2C220.444 1.2 225.194 0.199998 231.027 0.199998H233.277ZM243.977 18.95C243.977 16.35 243.26 14.2667 241.827 12.7C239.86 10.5667 236.644 9.5 232.177 9.5C227.777 9.5 224.56 10.5667 222.527 12.7C221.06 14.2667 220.327 16.35 220.327 18.95V19.6C220.327 22.1667 221.094 24.2667 222.627 25.9C224.66 28.1 227.844 29.2 232.177 29.2C236.644 29.2 239.86 28.1 241.827 25.9C243.26 24.3 243.977 22.2 243.977 19.6V18.95ZM263.58 38V0.799999H279.78L290.73 23.95L301.93 0.799999H317.33V38H305.63V14.25L294.48 38H286.18L275.08 14.25V38H263.58ZM338.079 0.799999V38H326.129V0.799999H338.079ZM346.88 0.799999H367.38C376.38 0.799999 382.93 2.7 387.03 6.5C390.164 9.46667 391.73 13.3833 391.73 18.25V19.75C391.73 22.95 391.164 25.7333 390.03 28.1C388.597 31.1 386.214 33.4333 382.88 35.1C379.014 37.0333 373.864 38 367.43 38H346.88V0.799999ZM358.83 29.05H366.33C371.53 29.05 375.164 27.9333 377.23 25.7C378.597 24.2 379.28 22.1 379.28 19.4V19.1C379.28 16.4333 378.597 14.3833 377.23 12.95C375.13 10.7833 371.497 9.7 366.33 9.7H358.83V29.05ZM430.615 38L427.715 31.55H408.065L405.215 38H393.265L410.165 0.799999H425.915L443.365 38H430.615ZM424.065 23.35L417.815 9.45L411.715 23.35H424.065ZM462.701 0.799999H498.351V9.35H474.551V14.75H497.601V23.6H474.551V29.35H498.651V38H462.701V0.799999ZM525.598 38.65C519.798 38.65 515.248 37.9167 511.948 36.45C509.248 35.25 507.315 33.5833 506.148 31.45C505.348 29.9833 504.948 28.2 504.948 26.1V25.65H517.848C517.915 26.8833 518.382 27.8833 519.248 28.65C520.615 29.8833 522.882 30.5 526.048 30.5H526.348C529.582 30.5 531.865 30.0833 533.198 29.25C533.732 28.9167 534.082 28.5333 534.248 28.1C534.448 27.6667 534.548 27.1667 534.548 26.6C534.548 26.0667 534.448 25.6167 534.248 25.25C534.048 24.85 533.698 24.5 533.198 24.2C532.065 23.5333 530.082 23.1833 527.248 23.15L522.148 23C516.015 22.8 511.598 21.6167 508.898 19.45C506.565 17.6167 505.398 15.1 505.398 11.9V11.45C505.398 7.98333 506.665 5.35 509.198 3.55C512.332 1.38333 517.548 0.3 524.848 0.3H526.748C534.515 0.3 539.965 1.53333 543.098 4C545.365 5.8 546.498 8.33333 546.498 11.6V12H533.798C533.698 11.5 533.548 11.05 533.348 10.65C533.148 10.25 532.798 9.86667 532.298 9.5C531.032 8.63333 528.915 8.2 525.948 8.2H525.498C522.565 8.2 520.498 8.48333 519.298 9.05C518.765 9.31666 518.382 9.63333 518.148 10C517.948 10.3333 517.848 10.75 517.848 11.25C517.848 12.2167 518.298 12.9333 519.198 13.4C520.298 14.0667 522.148 14.4167 524.748 14.45L529.998 14.6C536.432 14.8 541.032 15.9 543.798 17.9C544.998 18.8 545.848 19.9 546.348 21.2C546.882 22.4667 547.148 23.95 547.148 25.65V26.25C547.148 28.5167 546.715 30.4333 545.848 32C544.682 34.0333 542.732 35.6 539.998 36.7C536.765 38 532.415 38.65 526.948 38.65H525.598Z" fill="white"/>
<path d="M33.6926 88L12.1926 65.3V88H0.542578V50.8H12.7426L33.6426 73.1V50.8H45.2426V88H33.6926ZM75.4082 88.55C69.3415 88.55 64.5415 87.4167 61.0082 85.15C58.2415 83.3833 56.2582 80.8 55.0582 77.4C54.2582 75.1333 53.8582 72.3667 53.8582 69.1V50.8H65.7582V68.95C65.7582 71.65 66.3582 73.8 67.5582 75.4C69.1249 77.6 71.9415 78.7 76.0082 78.7H76.2582C80.2915 78.7 83.0915 77.6 84.6582 75.4C85.7915 73.8333 86.3582 71.6833 86.3582 68.95V50.8H98.2582V69.1C98.2582 72.2333 97.8249 75 96.9582 77.4C95.7582 80.7333 93.7415 83.3167 90.9082 85.15C87.3749 87.4167 82.6915 88.55 76.8582 88.55H75.4082ZM106.793 50.8H142.443V59.35H118.643V64.75H141.693V73.6H118.643V79.35H142.743V88H106.793V50.8ZM169.69 88.65C163.89 88.65 159.34 87.9167 156.04 86.45C153.34 85.25 151.407 83.5833 150.24 81.45C149.44 79.9833 149.04 78.2 149.04 76.1V75.65H161.94C162.007 76.8833 162.474 77.8833 163.34 78.65C164.707 79.8833 166.974 80.5 170.14 80.5H170.44C173.674 80.5 175.957 80.0833 177.29 79.25C177.824 78.9167 178.174 78.5333 178.34 78.1C178.54 77.6667 178.64 77.1667 178.64 76.6C178.64 76.0667 178.54 75.6167 178.34 75.25C178.14 74.85 177.79 74.5 177.29 74.2C176.157 73.5333 174.174 73.1833 171.34 73.15L166.24 73C160.107 72.8 155.69 71.6167 152.99 69.45C150.657 67.6167 149.49 65.1 149.49 61.9V61.45C149.49 57.9833 150.757 55.35 153.29 53.55C156.424 51.3833 161.64 50.3 168.94 50.3H170.84C178.607 50.3 184.057 51.5333 187.19 54C189.457 55.8 190.59 58.3333 190.59 61.6V62H177.89C177.79 61.5 177.64 61.05 177.44 60.65C177.24 60.25 176.89 59.8667 176.39 59.5C175.124 58.6333 173.007 58.2 170.04 58.2H169.59C166.657 58.2 164.59 58.4833 163.39 59.05C162.857 59.3167 162.474 59.6333 162.24 60C162.04 60.3333 161.94 60.75 161.94 61.25C161.94 62.2167 162.39 62.9333 163.29 63.4C164.39 64.0667 166.24 64.4167 168.84 64.45L174.09 64.6C180.524 64.8 185.124 65.9 187.89 67.9C189.09 68.8 189.94 69.9 190.44 71.2C190.974 72.4667 191.24 73.95 191.24 75.65V76.25C191.24 78.5167 190.807 80.4333 189.94 82C188.774 84.0333 186.824 85.6 184.09 86.7C180.857 88 176.507 88.65 171.04 88.65H169.69ZM210.309 88V60.2H195.659V50.8H236.859V60.2H222.209V88H210.309ZM278.71 70.1C281.377 70.6 283.393 71.55 284.76 72.95C286.327 74.5833 287.11 76.7167 287.11 79.35V84.2C287.11 85.4333 287.177 86.25 287.31 86.65C287.41 87.1167 287.543 87.4833 287.71 87.75V88H275.36C275.26 87.6667 275.193 87.4167 275.16 87.25C275.093 86.7833 275.06 86.2167 275.06 85.55V82.45C275.06 81.2167 274.943 80.1833 274.71 79.35C274.477 78.5167 274.093 77.85 273.56 77.35C272.493 76.3833 270.66 75.9 268.06 75.9H255.51V88H243.56V50.8H271.16C277.327 50.8 281.677 51.9167 284.21 54.15C285.943 55.7167 286.81 57.95 286.81 60.85V61.3C286.81 63.6333 286.01 65.6 284.41 67.2C282.943 68.6667 281.043 69.6333 278.71 70.1ZM255.51 66.75H269.56C271.327 66.75 272.61 66.4 273.41 65.7C274.043 65.1667 274.36 64.3333 274.36 63.2V63.1C274.36 62.0333 274.043 61.2333 273.41 60.7C272.577 60.0333 271.293 59.7 269.56 59.7H255.51V66.75ZM318.531 50.2C324.331 50.2 329.098 51.2 332.831 53.2C335.931 54.9 338.264 57.25 339.831 60.25C341.064 62.7167 341.681 65.4833 341.681 68.55V70.05C341.681 72.2167 341.314 74.3667 340.581 76.5C339.881 78.6333 338.731 80.55 337.131 82.25C333.131 86.4833 326.931 88.6 318.531 88.6H316.281C310.481 88.6 305.731 87.5667 302.031 85.5C298.831 83.7333 296.498 81.3333 295.031 78.3C293.764 75.8 293.131 73.05 293.131 70.05V68.55C293.131 65.45 293.764 62.6833 295.031 60.25C296.531 57.25 298.864 54.9 302.031 53.2C305.698 51.2 310.448 50.2 316.281 50.2H318.531ZM329.231 68.95C329.231 66.35 328.514 64.2667 327.081 62.7C325.114 60.5667 321.898 59.5 317.431 59.5C313.031 59.5 309.814 60.5667 307.781 62.7C306.314 64.2667 305.581 66.35 305.581 68.95V69.6C305.581 72.1667 306.348 74.2667 307.881 75.9C309.914 78.1 313.098 79.2 317.431 79.2C321.898 79.2 325.114 78.1 327.081 75.9C328.514 74.3 329.231 72.2 329.231 69.6V68.95ZM396.729 88L393.829 81.55H374.179L371.329 88H359.379L376.279 50.8H392.029L409.479 88H396.729ZM390.179 73.35L383.929 59.45L377.829 73.35H390.179ZM449.169 70.1C451.836 70.6 453.852 71.55 455.219 72.95C456.786 74.5833 457.569 76.7167 457.569 79.35V84.2C457.569 85.4333 457.636 86.25 457.769 86.65C457.869 87.1167 458.002 87.4833 458.169 87.75V88H445.819C445.719 87.6667 445.652 87.4167 445.619 87.25C445.552 86.7833 445.519 86.2167 445.519 85.55V82.45C445.519 81.2167 445.402 80.1833 445.169 79.35C444.936 78.5167 444.552 77.85 444.019 77.35C442.952 76.3833 441.119 75.9 438.519 75.9H425.969V88H414.019V50.8H441.619C447.786 50.8 452.136 51.9167 454.669 54.15C456.402 55.7167 457.269 57.95 457.269 60.85V61.3C457.269 63.6333 456.469 65.6 454.869 67.2C453.402 68.6667 451.502 69.6333 449.169 70.1ZM425.969 66.75H440.019C441.786 66.75 443.069 66.4 443.869 65.7C444.502 65.1667 444.819 64.3333 444.819 63.2V63.1C444.819 62.0333 444.502 61.2333 443.869 60.7C443.036 60.0333 441.752 59.7 440.019 59.7H425.969V66.75ZM477.302 88V60.2H462.652V50.8H503.852V60.2H489.202V88H477.302ZM510.552 50.8H546.202V59.35H522.402V64.75H545.452V73.6H522.402V79.35H546.502V88H510.552V50.8Z" fill="#FFD600"/>
</svg>
